HIERARCHY
ROOT Hips
{
  OFFSET 57.8838 95.319 338.509
  CHANNELS 6 Xposition Yposition Zposition Zrotation Xrotation Yrotation
  JOINT LeftUpLeg
  {
    OFFSET 8.64259 1.95398 -2.38835
    CHANNELS 3 Zrotation Xrotation Yrotation
    JOINT LeftLeg
    {
      OFFSET 43.7702 0 0
      CHANNELS 3 Zrotation Xrotation Yrotation
      JOINT LeftFoot
      {
        OFFSET 40.6238 0 0
        CHANNELS 3 Zrotation Xrotation Yrotation
        JOINT LeftToeBase
        {
          OFFSET 12.7242 0 0
          CHANNELS 3 Zrotation Xrotation Yrotation
          End Site
          {
            OFFSET 0 0 0
          }
        }
      }
    }
  }
  JOINT RightUpLeg
  {
    OFFSET -8.2249 1.95398 -2.59336
    CHANNELS 3 Zrotation Xrotation Yrotation
    JOINT RightLeg
    {
      OFFSET 43.5653 0 0
      CHANNELS 3 Zrotation Xrotation Yrotation
      JOINT RightFoot
      {
        OFFSET 40.6238 0 0
        CHANNELS 3 Zrotation Xrotation Yrotation
        JOINT RightToeBase
        {
          OFFSET 12.7242 0 0
          CHANNELS 3 Zrotation Xrotation Yrotation
          End Site
          {
            OFFSET 0 0 0
          }
        }
      }
    }
  }
  JOINT Spine
  {
    OFFSET 0.165834 0.87714 6.61349
    CHANNELS 3 Zrotation Xrotation Yrotation
    JOINT Spine1
    {
      OFFSET 7.38963 1.71661e-005 0
      CHANNELS 3 Zrotation Xrotation Yrotation
      JOINT Spine2
      {
        OFFSET 11.9445 1.14441e-005 0
        CHANNELS 3 Zrotation Xrotation Yrotation
        JOINT Spine3
        {
          OFFSET 14.7254 4.19617e-005 0
          CHANNELS 3 Zrotation Xrotation Yrotation
          JOINT Spine4
          {
            OFFSET 10.9679 0 0
            CHANNELS 3 Zrotation Xrotation Yrotation
            JOINT RightShoulder
            {
              OFFSET 2.46616 -1.6653 3.69651
              CHANNELS 3 Zrotation Xrotation Yrotation
              JOINT RightArm
              {
                OFFSET 13.0012 0 0
                CHANNELS 3 Zrotation Xrotation Yrotation
                JOINT RightForeArm
                {
                  OFFSET 28.7848 1.62311e-005 0
                  CHANNELS 3 Zrotation Xrotation Yrotation
                  JOINT RightHand
                  {
                    OFFSET 26.5688 1.62095e-005 0
                    CHANNELS 3 Zrotation Xrotation Yrotation
                    End Site
                    {
                      OFFSET 0 0 0
                    }
                  }
                }
              }
            }
            JOINT LeftShoulder
            {
              OFFSET 2.38034 -1.29275 -3.7523
              CHANNELS 3 Zrotation Xrotation Yrotation
              JOINT LeftArm
              {
                OFFSET 16.3182 6.07031e-005 0
                CHANNELS 3 Zrotation Xrotation Yrotation
                JOINT LeftForeArm
                {
                  OFFSET 27.0901 0 0
                  CHANNELS 3 Zrotation Xrotation Yrotation
                  JOINT LeftHand
                  {
                    OFFSET 24.5451 1.51738e-005 0
                    CHANNELS 3 Zrotation Xrotation Yrotation
                    End Site
                    {
                      OFFSET 0 0 0
                    }
                  }
                }
              }
            }
            JOINT Neck
            {
              OFFSET 5.0226 -0.0266342 0
              CHANNELS 3 Zrotation Xrotation Yrotation
              JOINT Head
              {
                OFFSET 6.69364 2.86102e-005 0
                CHANNELS 3 Zrotation Xrotation Yrotation
                End Site
                {
                  OFFSET 0 0 0
                }
              }
            }
          }
        }
      }
    }
  }
}
MOTION
Frames:	14
Frame Time:	0.0416667
258.888 69.1679 -252.869 4.18654 -81.0979 -6.92871 176.567 38.2316 171.439 33.135 50.8483 -156.211 83.5882 -31.9159 33.2926 2.27903 14.7155 -84.8235 -171.617 80.9057 36.6396 -49.0879 -54.0818 14.1852 62.8987 -7.61878 9.27504 -170.463 -16.2522 103.559 -5.84638 0.175749 -87.7434 26.9976 -9.80455 7.79234 15.3378 -9.45322 8.21619 -7.42062 -11.6872 4.46568 12.592 -11.6872 4.46567 103.906 -33.7604 -78.6705 79.1143 -18.7591 103.069 -50.8099 41.6996 -95.3603 -4.3169 1.66679 -54.3207 -66.6113 -5.11429 130.971 104.215 -6.71303 -149.004 80.8608 -40.551 -113.232 20.8141 35.0278 109.692 -90.614 -56.7714 20.492 85.8896 -67.9926 -26.0546 
259.022 69.333 -253.03 4.23544 -81.1304 -6.8414 176.785 36.5626 170.113 33.0891 49.6943 -154.84 83.9312 -31.406 33.0827 3.78571 14.1381 -84.8756 -173.687 80.8224 38.6993 -48.571 -54.2647 14.0254 62.7585 -7.26666 9.29914 -171.581 -14.9036 103.675 -5.84375 0.179759 -87.7381 26.9892 -9.79691 7.79964 15.3292 -9.44528 8.22313 -7.42838 -11.6821 4.47505 12.5843 -11.6821 4.47505 104.144 -34.107 -78.2275 78.6958 -19.3419 102.836 -50.7836 41.5668 -95.2823 -3.95959 1.48748 -53.8966 -66.6514 -5.06778 130.891 102.316 -3.8144 -149.887 78.0024 -39.6242 -117.805 19.7822 33.8022 110.159 -90.6619 -56.8657 20.4991 85.3991 -68.1004 -26.4587 
259.388 70.1675 -253.484 4.384 -81.2302 -6.57376 177.545 32.1415 165.895 33.2709 47.0911 -150.629 83.9567 -29.5371 32.0704 9.48195 11.968 -85.1281 178.247 80.1245 46.7788 -46.4627 -54.767 13.4199 62.2984 -6.06644 9.42205 -174.966 -11.0077 104.166 -5.83544 0.192668 -87.7217 26.9622 -9.77302 7.82232 15.3019 -9.42045 8.2447 -7.45334 -11.6662 4.50421 12.5593 -11.6661 4.5042 104.907 -35.1882 -76.8357 77.3816 -21.1275 102.071 -50.6926 41.1697 -95.0554 -2.79122 0.925921 -52.5606 -66.7742 -4.92493 130.644 97.1983 4.7204 -151.844 70.2161 -35.9807 -130.567 16.7739 30.0369 111.456 -90.8137 -57.1495 20.5128 83.9185 -68.4197 -27.684 
260.077 70.9636 -254.237 4.61836 -81.3886 -6.14745 177.8 26.4147 159.835 33.3408 45.643 -144.925 81.0796 -24.14 28.7156 22.5207 6.91024 -84.2145 169.889 79.2576 55.0704 -43.8259 -55.5743 12.5823 61.6541 -4.25213 9.69593 179.842 -5.58487 105.247 -5.82178 0.214823 -87.6948 26.9159 -9.73395 7.8592 15.2551 -9.37979 8.27976 -7.49628 -11.64 4.55169 12.5164 -11.6399 4.55169 106.221 -36.9486 -74.5324 75.2038 -23.9347 100.705 -50.5001 40.582 -94.7527 -0.706839 0.00888741 -50.325 -66.969 -4.69668 130.251 90.3625 16.6512 -153.344 60.6171 -28.1128 -146.747 12.4489 24.0996 113.101 -91.0688 -57.5804 20.5114 81.6418 -68.8911 -29.584 
261.199 70.7707 -255.391 4.92877 -81.5975 -5.57815 177.255 21.5106 151.929 32.2261 49.1024 -139.109 73.9139 -11.7307 22.9859 46.7269 -0.795408 -76.2215 164.944 79.3823 59.7756 -42.135 -56.6668 11.8514 60.9432 -2.18777 10.1072 173.37 0.346478 107.034 -5.80303 0.247316 -87.6575 26.8483 -9.68044 7.90979 15.1868 -9.32412 8.32784 -7.55933 -11.6041 4.61679 12.4533 -11.6041 4.61678 108.161 -39.3367 -71.3122 72.1349 -27.5588 98.5793 -50.1063 39.9103 -94.5147 2.50512 -1.22608 -47.114 -67.2264 -4.38964 129.727 82.8853 29.4195 -153.307 52.5327 -15.318 -161.659 7.36979 16.3707 114.636 -91.4328 -58.1105 20.4673 78.7472 -69.4496 -32.0259 
262.573 70.6272 -256.87 5.30566 -81.8487 -4.88152 177.184 19.199 140.179 31.4981 59.879 -132.741 68.4328 3.2386 19.5324 75.7532 -3.0363 -57.9228 158.444 79.1337 66.0612 -39.6011 -57.7676 10.9136 59.9567 0.487156 10.824 166.23 5.97513 109.489 -5.77984 0.291559 -87.6101 26.7563 -9.61398 7.97388 15.094 -9.25496 8.38884 -7.64549 -11.56 4.69885 12.3671 -11.56 4.69885 110.82 -42.2663 -67.1817 68.1162 -31.7189 95.4921 -49.3108 39.3186 -94.5997 7.11622 -2.66973 -42.7433 -67.5368 -4.00609 129.094 75.1547 40.8594 -151.397 40.3628 12.6069 -172.939 1.96979 7.47148 115.965 -91.9099 -58.6848 20.3545 75.4026 -70.0273 -34.8801 
264.196 70.5764 -258.724 5.7382 -82.1339 -4.07481 177.801 17.1511 126.19 27.3777 75.5941 -120.14 70.5664 12.278 17.0846 96.1476 2.67668 -43.6628 151.149 78.1696 73.236 -35.7539 -58.7328 9.77088 58.5283 3.90284 12.0102 159.059 10.7039 112.376 -5.7538 0.349199 -87.5527 26.6372 -9.53808 8.05174 14.9738 -9.17573 8.46314 -7.75796 -11.511 4.79705 12.2547 -11.511 4.79704 114.268 -45.5978 -62.2025 63.0761 -36.0547 91.2291 -47.7653 39.044 -95.464 13.4124 -4.04189 -36.8427 -67.8915 -3.53864 128.376 67.33 49.901 -147.812 -60.5208 -57.9127 -1.07158 -2.98456 -1.30379 117.388 -92.4885 -59.2482 20.1644 71.7538 -70.5616 -38.0302 
266.118 70.6311 -261.029 6.21517 -82.4452 -3.17574 178.447 12.0406 114.523 -47.9517 84.6315 -31.9515 76.3527 14.315 12.46 110.214 7.18424 -37.9235 144.498 75.9699 79.9502 -29.7059 -59.4374 8.32327 56.3169 8.41465 13.9933 152.359 14.3775 115.363 -5.72883 0.421316 -87.4862 26.4891 -9.46066 8.14394 14.8245 -9.09436 8.5517 -7.89887 -11.4649 4.90945 12.1138 -11.4649 4.90944 118.516 -49.1422 -56.5121 56.9107 -40.1757 85.5753 -44.9423 39.3396 -97.8581 21.5923 -4.75006 -28.8167 -68.284 -2.96161 127.604 59.5711 56.5047 -143.052 -38.7081 -42.1166 -0.0718321 -6.5655 -7.89028 119.129 -93.1131 -59.7606 19.9406 67.8977 -71.002 -41.4002 
268.569 68.8752 -264.185 6.7263 -82.7757 -2.20092 177.066 5.04751 108.057 -80.1384 77.0806 13.8477 81.2994 13.6337 6.70911 121.397 8.28206 -37.8385 140.435 75.2285 84.1959 -23.9937 -59.9451 7.25813 53.1469 13.4479 16.7005 146.424 17.0827 118.203 -5.71239 0.507846 -87.4129 26.3133 -9.39761 8.25042 14.6476 -9.02675 8.65514 -8.06796 -11.4367 5.03108 11.9447 -11.4367 5.03108 123.488 -52.7119 -50.3211 49.3602 -43.7219 78.2558 -40.0716 40.2259 -102.972 31.5314 -3.74841 -17.9682 -68.7096 -2.22591 126.823 52.0332 61.1442 -137.648 -36.7268 -57.9634 -0.0988657 -8.65273 -12.1552 121.112 -93.6458 -60.2126 19.82 63.8697 -71.3111 -44.9728 
271.667 64.489 -268.259 7.2617 -83.1197 -1.16668 174.02 -1.60783 105.176 -71.9463 71.0952 16.4905 84.9616 13.2572 1.43913 129.689 6.05087 -40.7423 137.987 77.0936 86.9029 -19.5018 -60.2112 6.96427 48.8342 18.7624 20.1513 141.37 19.0093 120.741 -5.7159 0.60814 -87.3379 26.1129 -9.37344 8.36858 14.4461 -8.99747 8.77199 -8.26372 -11.449 5.15191 11.7489 -11.449 5.1519 129.034 -56.172 -43.8832 39.6069 -46.2862 68.6257 -31.984 40.824 -112.601 42.303 0.475529 -3.76191 -69.1614 -1.27117 126.089 44.6477 64.4215 -131.867 -35.4209 -69.6721 -0.149385 -9.7179 -14.7488 123.101 -93.8548 -60.6282 20.0368 59.6606 -71.4608 -48.7748 
275.228 59.4569 -272.734 7.81149 -83.4719 -0.0895528 170.75 -8.57139 103.625 -56.9598 66.4521 13.027 86.6373 11.5513 -3.27072 134.577 1.72611 -44.6729 137.179 73.5712 89.0343 -6.25216 -59.9858 2.89475 39.4771 28.3654 29.0858 137.171 20.3688 122.915 -5.74376 0.722453 -87.2595 25.8874 -9.39601 8.50369 14.22 -9.01414 8.90784 -8.48679 -11.511 5.27453 11.5259 -11.511 5.27453 135.022 -59.4203 -37.3503 25.6236 -46.7529 55.1514 -19.6971 37.8222 -128.094 51.4216 9.32926 14.051 -69.6386 -0.0573452 125.431 37.3684 66.7363 -125.873 -34.5927 -78.4765 -0.258094 -10.2257 -16.3624 124.95 -93.6422 -60.9983 20.6803 55.2939 -71.4254 -52.7978 
279.123 53.4767 -277.331 8.36696 -83.8283 1.01512 167.71 -16.4887 102.817 -39.3123 62.2214 8.32725 86.5378 8.86166 -7.34481 136.481 -3.20559 -48.6683 140.53 74.2993 86.7001 0.069514 -59.6088 0.0716487 31.0938 34.8736 36.8539 133.727 21.3314 124.735 -5.83877 0.839726 -87.2457 25.6657 -9.58538 8.55344 13.9992 -9.20116 8.96593 -8.71892 -11.7063 5.2636 11.2937 -11.7063 5.2636 141.039 -62.5733 -31.266 4.3469 -41.5241 36.2307 -5.26893 23.7622 -145.858 53.7989 22.0015 36.3786 -70.0441 1.30988 125.106 26.9147 68.9536 -116.903 -34.1495 -86.467 -0.834251 -10.4048 -17.3336 126.647 -91.7815 -61.7075 22.9702 50.6932 -71.2773 -57.084 
283.063 46.6107 -281.637 8.92064 -84.1857 2.1336 165.789 -28.0738 103.091 -14.0821 57.8638 2.72464 83.1766 3.56038 -11.3959 136.331 -7.7701 -52.398 153.377 79.0692 74.054 0.0673752 -58.883 0.0700568 25.8696 39.2233 41.191 130.921 22.0176 126.239 -5.05896 0.835997 -86.3426 25.5509 -7.56763 9.82459 13.8624 -7.1302 10.1451 -8.67412 -10.1625 7.10485 11.3385 -10.1625 7.10486 146.18 -57.5746 -22.1949 -3.55292 -30.11 26.8936 4.16818 2.2496 -157.338 46.0981 32.8838 63.5382 -72.1263 3.15141 118.812 54.898 62.8343 -140.812 -36.8035 -75.9769 -0.212088 -11.0456 -19.3264 127.758 -108.433 -56.7948 8.44517 49.9173 -70.3408 -57.2347 
286.746 39.3268 -285.402 9.46514 -84.5414 3.25246 163.227 -36.0576 102.695 0.183548 53.7517 -0.0573873 81.4591 1.96901 -13.8832 135.011 -11.5651 -55.7484 -172.211 81.3537 39.595 0.0623316 -57.7078 0.118553 20.5511 44.1659 45.696 128.652 22.5111 127.468 -5.02838 0.918844 -86.0416 25.3878 -7.34402 10.3642 13.6937 -6.88343 10.6737 -8.80389 -10.1102 7.69155 11.2088 -10.1102 7.69155 150.3 -57.7823 -17.2556 -21.3895 -7.23181 16.0497 17.9431 -35.6866 -157.223 29.0502 33.6313 92.4285 -73.1102 6.25299 116.959 54.1492 64.0383 -140.694 -37.0378 -78.881 -0.266886 -11.0709 -19.9642 129.091 -109.772 -56.0904 8.52609 45.61 -69.3144 -61.3893 
